<?xml version="1.0" standalone="no"?>
<!DOCTYPE svg PUBLIC "-//W3C//DTD SVG 20010904//EN"
 "http://www.w3.org/TR/2001/REC-SVG-20010904/DTD/svg10.dtd">
<svg version="1.0" xmlns="http://www.w3.org/2000/svg"
 width="48.000000pt" height="48.000000pt" viewBox="0 0 48.000000 48.000000"
 preserveAspectRatio="xMidYMid meet">
<metadata>
Created by potrace 1.16, written by Peter Selinger 2001-2019
</metadata>
<g transform="translate(0.000000,48.000000) scale(0.100000,-0.100000)"
fill="#000000" stroke="none">
<path d="M65 407 c-3 -7 -4 -87 -3 -177 l3 -165 175 0 175 0 0 175 0 175 -173
3 c-135 2 -174 0 -177 -11z m245 -98 c0 -6 -18 -32 -41 -57 l-41 -47 31 -3
c19 -2 31 -9 31 -18 0 -11 -15 -14 -65 -14 -78 0 -80 7 -25 70 l40 45 -30 3
c-18 2 -30 9 -30 18 0 11 15 14 65 14 40 0 65 -4 65 -11z"/>
</g>
</svg>
